<svg width="23" height="23" viewBox="0 0 23 23" fill="none" xmlns="http://www.w3.org/2000/svg">
<path d="M17.115 12.4982C18.3936 12.4982 19.5512 12.5789 20.2633 12.7292C20.2744 12.7292 20.9261 12.8781 21.1433 12.9742C21.4568 13.1245 21.7221 13.3959 21.8912 13.7354C22.0121 14.0068 22.0714 14.2935 22.0714 14.5928C22.0603 14.9045 21.8788 15.4904 21.7937 15.7214C21.2642 17.244 19.5265 20.1541 18.4664 21.2702C18.2973 21.4595 18.0924 21.6641 18.0443 21.7184C17.7777 21.9494 17.4531 22.0719 17.1039 22.0719C16.7892 22.0719 16.4757 21.9633 16.2227 21.7448C16.0912 21.6404 15.8994 21.4327 15.8117 21.3354L15.7648 21.2828C14.6664 20.1415 13.0151 17.2983 12.4844 15.8564C12.4731 15.8564 12.2087 15.1372 12.1553 14.7033L12.1462 14.5928V14.5385C12.1462 13.9122 12.4597 13.3277 12.967 13.0285C13.2446 12.8656 14.0518 12.7153 14.0641 12.7014C14.7874 12.5789 15.8969 12.4982 17.115 12.4982ZM5.94267 12.5699C6.44805 12.5699 6.86406 12.9983 6.92091 13.5508L6.92753 13.6804L7.19781 19.0454C7.19781 19.8275 6.63626 20.4608 5.94267 20.4608C5.29242 20.4608 4.75715 19.9042 4.69278 19.1902L4.68629 19.0454L4.9578 13.6804C4.9578 13.0667 5.3984 12.5699 5.94267 12.5699ZM5.94921 0.980957C6.26145 0.980957 6.57493 1.08951 6.82916 1.30661C6.9387 1.39446 7.09017 1.55353 7.18837 1.66048L7.28704 1.77005C8.38421 2.91263 10.0368 5.75446 10.5674 7.19626C10.5776 7.19626 10.8429 7.91661 10.8966 8.35075L10.9056 8.4613V8.51558C10.9056 9.14045 10.5909 9.72496 10.0849 10.0242C9.8072 10.1884 9.00006 10.3373 8.98771 10.3512C8.26449 10.4737 7.15498 10.5544 5.93686 10.5544C4.65827 10.5544 3.50063 10.4737 2.78852 10.3234C2.77617 10.3234 2.12577 10.1745 1.90856 10.0785C1.59508 9.92954 1.32974 9.65677 1.16066 9.31719C1.03971 9.04581 0.980469 8.75913 0.980469 8.4613C0.991576 8.14817 1.173 7.56366 1.25692 7.33264C1.78761 5.80874 3.52408 2.89871 4.58546 1.78396C4.75454 1.5933 4.95941 1.38872 5.00754 1.33445C5.27289 1.10343 5.5987 0.980957 5.94921 0.980957ZM17.1094 2.59207C17.7597 2.59207 18.2939 3.14862 18.3581 3.86266L18.3646 4.00745L18.0943 9.37254C18.0943 9.98629 17.6537 10.4831 17.1094 10.4831C16.604 10.4831 16.188 10.0547 16.1312 9.50213L16.1246 9.37254L15.8531 4.00745C15.8531 3.2253 16.4158 2.59207 17.1094 2.59207Z" fill="white"/>
</svg>
