<svg width="30" height="30" viewBox="0 0 30 30" fill="none" xmlns="http://www.w3.org/2000/svg">
<path opacity="0.4" fill-rule="evenodd" clip-rule="evenodd" d="M28.75 19.0249C29.2678 19.0249 29.6875 19.4446 29.6875 19.9624C29.6875 25.3177 25.3553 29.6499 20 29.6499C19.6622 29.6499 19.3506 29.4682 19.1842 29.1743C19.0178 28.8804 19.0223 28.5197 19.1961 28.2301L20.5086 26.0426C20.775 25.5986 21.3509 25.4546 21.7948 25.721C22.2388 25.9874 22.3828 26.5633 22.1164 27.0072L21.7773 27.5725C25.2386 26.7694 27.8125 23.6706 27.8125 19.9624C27.8125 19.4446 28.2322 19.0249 28.75 19.0249Z" fill="#485FE6"/>
<path opacity="0.4" fill-rule="evenodd" clip-rule="evenodd" d="M8.22274 2.35232C4.76137 3.15536 2.1875 6.25418 2.1875 9.9624C2.1875 10.4802 1.76777 10.8999 1.25 10.8999C0.732233 10.8999 0.3125 10.4802 0.3125 9.9624C0.3125 4.60714 4.64473 0.274902 10 0.274902C10.3378 0.274902 10.6494 0.456583 10.8158 0.750497C10.9822 1.04441 10.9777 1.40512 10.8039 1.69474L9.4914 3.88224C9.22501 4.32622 8.64914 4.47019 8.20516 4.2038C7.76118 3.93741 7.61721 3.36154 7.8836 2.91756L8.22274 2.35232Z" fill="#485FE6"/>
<path opacity="0.4" d="M18.5627 19.1625C18.5627 23.425 15.1127 26.875 10.8502 26.875C6.5877 26.875 3.1377 23.425 3.1377 19.1625C3.1377 14.9 6.5877 11.45 10.8502 11.45C11.0502 11.45 11.2377 11.4625 11.4502 11.475C15.2377 11.7625 18.2627 14.7875 18.5502 18.575C18.5502 18.7625 18.5627 18.95 18.5627 19.1625Z" fill="#485FE6"/>
<path d="M26.8752 10.8375C26.8752 15.1 23.4252 18.55 19.1627 18.55H18.5502C18.2627 14.7625 15.2377 11.7375 11.4502 11.45V10.8375C11.4502 6.57498 14.9002 3.125 19.1627 3.125C23.4252 3.125 26.8752 6.57498 26.8752 10.8375Z" fill="#E2E6FD"/>
<path d="M13.9004 18.7626C14.0504 18.4501 14.1379 18.1126 14.1379 17.7501C14.1379 16.5001 13.0379 15.4001 11.7879 15.4001H11.4629V14.925C11.4629 14.4125 11.0379 13.9875 10.5254 13.9875C10.0129 13.9875 9.58789 14.4125 9.58789 14.925V15.4001H8.27539C7.76289 15.4001 7.33789 15.8251 7.33789 16.3376V19.1501V21.9626C7.33789 22.4751 7.76289 22.9001 8.27539 22.9001H9.58789V23.3751C9.58789 23.8876 10.0129 24.3126 10.5254 24.3126C11.0379 24.3126 11.4629 23.8876 11.4629 23.3751V22.9001H12.2879C13.6879 22.9001 14.8379 21.85 14.8379 20.55C14.8379 19.8375 14.4629 19.1876 13.9004 18.7626ZM9.21289 17.2751H11.7879C12.0504 17.2751 12.2629 17.5626 12.2629 17.7501C12.2629 18.0126 12.0504 18.2251 11.7879 18.2251H9.21289V17.2751ZM12.2879 21.0376H9.20039V20.1001H11.7754H12.2754C12.6754 20.1001 12.9504 20.3501 12.9504 20.5751C12.9504 20.8001 12.6879 21.0376 12.2879 21.0376Z" fill="#485FE6"/>
</svg>
