<svg width="145" height="186" viewBox="0 0 145 186" fill="none" xmlns="http://www.w3.org/2000/svg">
<path d="M107.39 73.749L51.4438 71.3063C47.5815 71.1377 44.3137 74.132 44.1451 77.9943L40.4811 161.914C40.3124 165.777 43.3068 169.044 47.1691 169.213L103.116 171.656C106.978 171.824 110.246 168.83 110.414 164.968L114.078 81.0477C114.247 77.1854 111.253 73.9176 107.39 73.749Z" fill="#FFFFFE" stroke="#485FE6" stroke-width="2"/>
<path d="M67.28 56.655L11.7591 63.9644C6.83102 64.6132 3.36201 69.1341 4.0108 74.0622L14.975 157.344C15.6238 162.272 20.1447 165.741 25.0727 165.092L80.5936 157.782C85.5217 157.134 88.9907 152.613 88.3419 147.685L77.3777 64.4032C76.7289 59.4752 72.208 56.0062 67.28 56.655Z" fill="#FFFFFE" stroke="#485FE6" stroke-width="2"/>
<path d="M5.00221 73.9317C4.42551 69.5513 7.50908 65.5327 11.8896 64.956L67.4105 57.6465C71.791 57.0698 75.8095 60.1534 76.3862 64.5339L78.3441 79.4055L6.9601 88.8034L5.00221 73.9317Z" fill="#FFFFFE"/>
<path d="M89.7706 62.7717C90.592 62.6636 91.1701 61.9101 91.062 61.0887C90.9539 60.2674 90.2004 59.6892 89.379 59.7974L82.4389 60.711C81.6176 60.8192 81.0394 61.5727 81.1476 62.394C81.2557 63.2153 82.0092 63.7935 82.8305 63.6854L89.7706 62.7717Z" fill="#485FE6"/>
<path d="M66.6399 44.1312C66.5317 43.3099 65.7782 42.7317 64.9569 42.8399C64.1356 42.948 63.5574 43.7015 63.6655 44.5228L64.5792 51.4629C64.6873 52.2843 65.4408 52.8624 66.2622 52.7543C67.0835 52.6462 67.6617 51.8927 67.5535 51.0713L66.6399 44.1312Z" fill="#485FE6"/>
<path d="M82.5138 48.781C83.0181 48.1237 82.8941 47.1821 82.2369 46.6778C81.5797 46.1735 80.638 46.2974 80.1337 46.9547L75.8724 52.5082C75.3681 53.1654 75.4921 54.107 76.1493 54.6113C76.8065 55.1156 77.7481 54.9917 78.2525 54.3344L82.5138 48.781Z" fill="#485FE6"/>
<path d="M69.9428 84.546L16.4048 91.5944C15.3096 91.7386 14.5388 92.7432 14.6829 93.8384C14.8271 94.9335 15.8317 95.7044 16.9269 95.5602L70.4649 88.5118C71.56 88.3676 72.3309 87.363 72.1867 86.2678C72.0426 85.1727 71.0379 84.4018 69.9428 84.546Z" fill="#485FE6"/>
<path d="M72.5541 104.375L19.0161 111.423C17.921 111.567 17.1501 112.572 17.2943 113.667C17.4384 114.762 18.4431 115.533 19.5382 115.389L73.0762 108.34C74.1713 108.196 74.9422 107.192 74.7981 106.096C74.6539 105.001 73.6492 104.23 72.5541 104.375Z" fill="#485FE6"/>
<path d="M75.1645 124.204L21.6264 131.252C20.5313 131.396 19.7604 132.401 19.9046 133.496C20.0488 134.591 21.0534 135.362 22.1485 135.218L75.6866 128.169C76.7817 128.025 77.5526 127.021 77.4084 125.926C77.2642 124.83 76.2596 124.06 75.1645 124.204Z" fill="#485FE6"/>
<path opacity="0.4" d="M34.3042 97.3071L17.4497 99.5261C16.3546 99.6702 15.5837 100.675 15.7278 101.77C15.872 102.865 16.8767 103.636 17.9718 103.492L34.8264 101.273C35.9215 101.129 36.6924 100.124 36.5482 99.0289C36.404 97.9338 35.3994 97.1629 34.3042 97.3071Z" fill="#485FE6"/>
<path opacity="0.4" d="M36.9146 117.136L20.06 119.355C18.9649 119.499 18.194 120.504 18.3382 121.599C18.4824 122.694 19.487 123.465 20.5821 123.321L37.4367 121.102C38.5318 120.958 39.3027 119.953 39.1585 118.858C39.0144 117.763 38.0097 116.992 36.9146 117.136Z" fill="#485FE6"/>
<path opacity="0.4" d="M39.525 136.965L22.6704 139.184C21.5753 139.328 20.8044 140.333 20.9486 141.428C21.0927 142.523 22.0974 143.294 23.1925 143.15L40.0471 140.931C41.1422 140.786 41.9131 139.782 41.7689 138.687C41.6247 137.592 40.6201 136.821 39.525 136.965Z" fill="#485FE6"/>
</svg>
