<svg width="110" height="169" viewBox="0 0 167 169" fill="none" xmlns="http://www.w3.org/2000/svg">
<path d="M83.0002 87.625C70.8485 87.625 60.9585 78.595 60.9585 67.5C60.9585 56.405 70.8485 47.375 83.0002 47.375C95.1518 47.375 105.042 56.405 105.042 67.5C105.042 78.595 95.1518 87.625 83.0002 87.625ZM83.0002 52.625C74.0302 52.625 66.7085 59.31 66.7085 67.5C66.7085 75.69 74.0302 82.375 83.0002 82.375C91.9702 82.375 99.2918 75.69 99.2918 67.5C99.2918 59.31 91.9702 52.625 83.0002 52.625Z" fill="#485FE6"/>
<path d="M50.0723 122.625C48.5006 122.625 47.1973 121.435 47.1973 120C47.1973 105.055 63.259 92.875 83.0007 92.875C84.5724 92.875 85.8757 94.065 85.8757 95.5C85.8757 96.935 84.5724 98.125 83.0007 98.125C66.4407 98.125 52.9473 107.925 52.9473 120C52.9473 121.435 51.6439 122.625 50.0723 122.625Z" fill="#485FE6"/>
<path d="M106.767 120.525C98.41 120.525 91.625 114.33 91.625 106.7C91.625 99.07 98.41 92.875 106.767 92.875C115.123 92.875 121.908 99.07 121.908 106.7C121.908 114.33 115.123 120.525 106.767 120.525ZM106.767 98.125C101.592 98.125 97.375 101.975 97.375 106.7C97.375 111.425 101.592 115.275 106.767 115.275C111.942 115.275 116.158 111.425 116.158 106.7C116.158 101.975 111.942 98.125 106.767 98.125Z" fill="#485FE6"/>
<path d="M121.333 122.625C120.605 122.625 119.876 122.38 119.301 121.855L115.468 118.355C114.356 117.34 114.356 115.66 115.468 114.645C116.58 113.63 118.42 113.63 119.532 114.645L123.365 118.145C124.477 119.16 124.477 120.84 123.365 121.855C122.79 122.38 122.061 122.625 121.333 122.625Z" fill="#485FE6"/>
<path d="M163 84.5C163 129.004 127.362 165 83.5 165C39.6381 165 4 129.004 4 84.5C4 39.996 39.6381 4 83.5 4C127.362 4 163 39.996 163 84.5Z" stroke="#485FE6" stroke-opacity="0.6" stroke-width="8"/>
</svg>
