<svg width="80" height="80" viewBox="0 0 186 179" fill="none" xmlns="http://www.w3.org/2000/svg">
<ellipse cx="93" cy="89.5" rx="93" ry="89.5" fill="white"/>
<path d="M180 89.5C180 135.401 141.268 173 93 173C44.7322 173 6 135.401 6 89.5C6 43.5991 44.7322 6 93 6C141.268 6 180 43.5991 180 89.5Z" stroke="white" stroke-opacity="0.5" stroke-width="12"/>
<path d="M118.909 90.5169L119.26 90.1662L118.912 89.8126L111.612 82.3955C110.762 81.5316 110.768 80.0991 111.625 79.242C112.48 78.3871 113.894 78.3927 114.742 79.2544L123.948 88.6081C124.798 89.472 124.792 90.9045 123.935 91.7616L114.655 101.042C114.21 101.487 113.653 101.69 113.094 101.688C112.535 101.686 111.98 101.478 111.538 101.029C110.688 100.165 110.694 98.7328 111.551 97.8757L118.909 90.5169Z" fill="white" stroke="white"/>
<path d="M122.122 92.4072L85.4027 92.2609C84.2023 92.2561 83.1989 91.2423 83.2037 90.0226C83.2086 88.8028 84.2201 87.797 85.4205 87.8018L122.139 87.9481C123.34 87.9529 124.343 88.9666 124.338 90.1864C124.333 91.4062 123.322 92.4119 122.122 92.4072Z" fill="white" stroke="white"/>
<path d="M92.5085 121.186C83.3323 121.15 75.579 117.888 70.1296 112.351C64.6799 106.814 61.5046 98.9708 61.5415 89.7178C61.5783 80.4647 64.816 72.6472 70.3096 67.1536C75.803 61.6602 83.582 58.4604 92.7582 58.4969C93.9586 58.5017 94.9621 59.5155 94.9572 60.7353C94.9524 61.9551 93.9409 62.9608 92.7405 62.956C84.9114 62.9248 78.2245 65.6542 73.4862 70.3925C68.7482 75.1306 65.9887 81.8471 65.9572 89.7353C65.9258 97.6236 68.6317 104.362 73.3319 109.138C78.0323 113.913 84.6972 116.696 92.5263 116.727C93.7267 116.732 94.7301 117.746 94.7253 118.966C94.7204 120.185 93.7089 121.191 92.5085 121.186Z" fill="white" stroke="white"/>
</svg>
