<svg width="167" height="169" viewBox="0 0 167 169" fill="none" xmlns="http://www.w3.org/2000/svg">
<path d="M163 84.5C163 129.004 127.362 165 83.5 165C39.6381 165 4 129.004 4 84.5C4 39.996 39.6381 4 83.5 4C127.362 4 163 39.996 163 84.5Z" stroke="#485FE6" stroke-opacity="0.6" stroke-width="8"/>
<path d="M61.1748 124.365C60.7998 124.365 60.3873 124.328 60.0498 124.291L51.9123 123.178C48.0123 122.659 44.4873 119.21 43.8873 115.279L42.7623 107.158C42.3873 104.562 43.5123 101.188 45.3873 99.2964L61.8498 83.0168C59.1873 72.4851 62.2623 61.3601 70.0998 53.6839C82.2498 41.706 102.012 41.6689 114.2 53.6839C120.087 59.506 123.312 67.2564 123.312 75.4889C123.312 83.7214 120.087 91.4718 114.2 97.2939C106.325 105.007 95.1123 108.048 84.5373 105.378L68.0373 121.658C66.4623 123.289 63.6498 124.365 61.1748 124.365ZM92.1123 50.2351C85.5498 50.2351 79.0248 52.6826 74.0373 57.6147C67.2873 64.2526 64.8498 73.9685 67.6623 83.0168C67.9623 84.018 67.6998 85.0564 66.9498 85.798L49.3248 103.227C48.6873 103.858 48.1623 105.489 48.2748 106.342L49.3998 114.463C49.6248 115.873 51.1623 117.467 52.5873 117.653L60.7623 118.765C61.6623 118.913 63.3123 118.394 63.9498 117.764L81.6498 100.298C82.3998 99.556 83.4873 99.3335 84.4623 99.6301C93.4998 102.448 103.362 100.038 110.112 93.363C114.912 88.6164 117.575 82.238 117.575 75.4889C117.575 68.7026 114.912 62.3614 110.112 57.6147C105.237 52.7197 98.6748 50.2351 92.1123 50.2351Z" fill="#485FE6"/>
<path d="M72.4623 116.169C71.7498 116.169 71.0373 115.909 70.4748 115.353L61.8498 106.824C60.7623 105.749 60.7623 103.969 61.8498 102.893C62.9373 101.818 64.7373 101.818 65.8248 102.893L74.4498 111.422C75.5373 112.498 75.5373 114.278 74.4498 115.353C73.8873 115.909 73.1748 116.169 72.4623 116.169Z" fill="#485FE6"/>
<path d="M92.375 83.573C87.725 83.573 83.9375 79.8276 83.9375 75.2292C83.9375 70.6309 87.725 66.8855 92.375 66.8855C97.025 66.8855 100.812 70.6309 100.812 75.2292C100.812 79.8276 97.025 83.573 92.375 83.573ZM92.375 72.448C90.8375 72.448 89.5625 73.7088 89.5625 75.2292C89.5625 76.7497 90.8375 78.0105 92.375 78.0105C93.9125 78.0105 95.1875 76.7497 95.1875 75.2292C95.1875 73.7088 93.9125 72.448 92.375 72.448Z" fill="#485FE6"/>
</svg>
