<svg width="30" height="30" viewBox="0 0 30 30" fill="none" xmlns="http://www.w3.org/2000/svg">
<path opacity="0.4" d="M20.2375 2.5H9.7625C5.2125 2.5 2.5 5.2125 2.5 9.7625V20.225C2.5 24.7875 5.2125 27.5 9.7625 27.5H20.225C24.775 27.5 27.4875 24.7875 27.4875 20.2375V9.7625C27.5 5.2125 24.7875 2.5 20.2375 2.5Z" fill="#6450EF"/>
<path d="M22.3125 16.9125C22.2125 16.6875 22.0375 16.5 21.8 16.4C21.6875 16.35 21.5625 16.325 21.4375 16.325H8.5625C8.05 16.325 7.625 16.75 7.625 17.2625C7.625 17.775 8.05 18.2 8.5625 18.2H19.1875L16.9875 20.4C16.625 20.7624 16.625 21.3624 16.9875 21.7249C17.175 21.9124 17.4125 22 17.65 22C17.8875 22 18.125 21.9124 18.3125 21.7249L22.1125 17.925C22.2 17.8375 22.2625 17.7375 22.3125 17.625C22.4 17.4 22.4 17.1375 22.3125 16.9125Z" fill="#6450EF"/>
<path d="M7.6877 13.0875C7.7877 13.3125 7.9627 13.5 8.2002 13.6C8.3127 13.65 8.4377 13.675 8.5627 13.675H21.4502C21.9627 13.675 22.3877 13.25 22.3877 12.7375C22.3877 12.225 21.9627 11.8 21.4502 11.8H10.8252L13.0252 9.60005C13.3877 9.23755 13.3877 8.63755 13.0252 8.27505C12.6627 7.91255 12.0627 7.91255 11.7002 8.27505L7.9002 12.0625C7.8127 12.15 7.7377 12.2625 7.6877 12.375C7.6002 12.6 7.6002 12.8625 7.6877 13.0875Z" fill="#485FE6"/>
</svg>
