<svg
    width="30"
    height="30"
    viewBox="0 0 20 21"
    fill="none"
    xmlns="http://www.w3.org/2000/svg"
  >
    <path
      d="M10.8334 9.7917C10.8157 9.7917 10.8002 9.78848 10.7868 9.78311C10.774 9.77794 10.7599 9.76949 10.7453 9.75481L10.3917 10.1084L10.7453 9.75481C10.7237 9.73328 10.7104 9.70255 10.7104 9.6667C10.7104 9.63085 10.7237 9.60011 10.7453 9.57859L17.5786 2.74525C17.6001 2.72373 17.6308 2.71045 17.6667 2.71045C17.7025 2.71045 17.7333 2.72373 17.7548 2.74525C17.7763 2.76678 17.7896 2.79751 17.7896 2.83337C17.7896 2.86922 17.7763 2.89995 17.7548 2.92148L10.9215 9.75481C10.9068 9.76949 10.8927 9.77794 10.8799 9.78311C10.8666 9.78848 10.851 9.7917 10.8334 9.7917Z"
      fill="#ffffff"
      stroke="#ffffff"
    />
    <path
      d="M18.2085 2.79175V2.29175H17.7085H14.3335C14.3033 2.29175 14.2721 2.27946 14.2464 2.25382C14.2208 2.22818 14.2085 2.1969 14.2085 2.16675C14.2085 2.1366 14.2208 2.10532 14.2464 2.07968C14.2721 2.05403 14.3033 2.04175 14.3335 2.04175H18.3335C18.3636 2.04175 18.3949 2.05403 18.4206 2.07968C18.4462 2.10532 18.4585 2.1366 18.4585 2.16675V6.16675C18.4585 6.1969 18.4462 6.22818 18.4206 6.25382C18.3949 6.27946 18.3636 6.29175 18.3335 6.29175C18.3033 6.29175 18.2721 6.27946 18.2464 6.25382C18.2208 6.22818 18.2085 6.1969 18.2085 6.16675V2.79175Z"
      fill="#ffffff"
      stroke="#ffffff"
    />
    <path
      d="M12.4998 18.9584H7.49984C5.29473 18.9584 3.84018 18.4854 2.92735 17.5726C2.01452 16.6597 1.5415 15.2052 1.5415 13.0001V8.00008C1.5415 5.79498 2.01452 4.34042 2.92735 3.42759C3.84018 2.51476 5.29473 2.04175 7.49984 2.04175H9.1665C9.19665 2.04175 9.22793 2.05403 9.25358 2.07968C9.27922 2.10532 9.2915 2.1366 9.2915 2.16675C9.2915 2.1969 9.27922 2.22818 9.25358 2.25382C9.22793 2.27946 9.19665 2.29175 9.1665 2.29175H7.49984C5.54373 2.29175 4.06874 2.63449 3.10149 3.60174C2.13424 4.56899 1.7915 6.04397 1.7915 8.00008V13.0001C1.7915 14.9562 2.13424 16.4312 3.10149 17.3984C4.06874 18.3657 5.54373 18.7084 7.49984 18.7084H12.4998C14.4559 18.7084 15.9309 18.3657 16.8982 17.3984C17.8654 16.4312 18.2082 14.9562 18.2082 13.0001V11.3334C18.2082 11.3033 18.2205 11.272 18.2461 11.2463C18.2717 11.2207 18.303 11.2084 18.3332 11.2084C18.3633 11.2084 18.3946 11.2207 18.4202 11.2463C18.4459 11.272 18.4582 11.3033 18.4582 11.3334V13.0001C18.4582 15.2052 17.9852 16.6597 17.0723 17.5726C16.1595 18.4854 14.7049 18.9584 12.4998 18.9584Z"
      fill="#ffffff"
      stroke="#ffffff"
    />
  </svg>