<svg width="30" height="30" viewBox="0 0 30 30" fill="none" xmlns="http://www.w3.org/2000/svg">
<path opacity="0.4" d="M8.41229 24.625C9.43729 23.525 10.9998 23.6125 11.8998 24.8125L13.1623 26.5C14.1748 27.8375 15.8123 27.8375 16.8248 26.5L18.0873 24.8125C18.9873 23.6125 20.5498 23.525 21.5748 24.625C23.7998 27 25.6123 26.2125 25.6123 22.8875V8.8C25.6123 3.7625 24.4373 2.5 19.7123 2.5H10.2623C5.53731 2.5 4.3623 3.7625 4.3623 8.8V22.875C4.3748 26.2125 6.19979 26.9875 8.41229 24.625Z" fill="#485FE6"/>
<path d="M18.4375 13.4375H11.5625C11.05 13.4375 10.625 13.0125 10.625 12.5C10.625 11.9875 11.05 11.5625 11.5625 11.5625H18.4375C18.95 11.5625 19.375 11.9875 19.375 12.5C19.375 13.0125 18.95 13.4375 18.4375 13.4375Z" fill="#485FE6"/>
</svg>
