<svg width="30" height="30" viewBox="0 0 30 30" fill="none" xmlns="http://www.w3.org/2000/svg">
<path opacity="0.4" d="M15 27.5C21.9036 27.5 27.5 21.9036 27.5 15C27.5 8.09644 21.9036 2.5 15 2.5C8.09644 2.5 2.5 8.09644 2.5 15C2.5 21.9036 8.09644 27.5 15 27.5Z" fill="#485FE6"/>
<path d="M21.1873 22.125C20.9498 22.125 20.7123 22.0375 20.5248 21.85C20.1623 21.4875 20.1623 20.8875 20.5248 20.525C21.9998 19.05 22.8123 17.0875 22.8123 15C22.8123 12.9125 21.9998 10.95 20.5248 9.47505C20.1623 9.11255 20.1623 8.51255 20.5248 8.15005C20.8873 7.78755 21.4873 7.78755 21.8498 8.15005C23.6748 9.97505 24.6873 12.4125 24.6873 15C24.6873 17.5875 23.6748 20.025 21.8498 21.85C21.6623 22.0375 21.4248 22.125 21.1873 22.125Z" fill="#485FE6"/>
<path d="M8.81248 22.125C8.57499 22.125 8.33749 22.0375 8.14999 21.85C6.32499 20.025 5.3125 17.5875 5.3125 15C5.3125 12.4125 6.32499 9.97505 8.14999 8.15005C8.51249 7.78755 9.11248 7.78755 9.47498 8.15005C9.83748 8.51255 9.83748 9.11255 9.47498 9.47505C7.99998 10.95 7.1875 12.9125 7.1875 15C7.1875 17.0875 7.99998 19.05 9.47498 20.525C9.83748 20.8875 9.83748 21.4875 9.47498 21.85C9.28748 22.0375 9.04999 22.125 8.81248 22.125Z" fill="#485FE6"/>
<path d="M17.0625 14.725L15.9375 14.325V11.85H15.975C16.525 11.85 16.9875 12.35 16.9875 12.95C16.9875 13.4625 17.4125 13.8875 17.925 13.8875C18.4375 13.8875 18.8625 13.4625 18.8625 12.95C18.8625 11.3125 17.575 9.975 15.975 9.975H15.9375V9.75C15.9375 9.2375 15.5125 8.8125 15 8.8125C14.4875 8.8125 14.0625 9.2375 14.0625 9.75V9.975H13.775C12.325 9.975 11.1375 11.2 11.1375 12.6875C11.1375 14 11.725 14.8375 12.925 15.2625L14.05 15.6625V18.1375H14.0125C13.4625 18.1375 13 17.6375 13 17.0375C13 16.525 12.575 16.1 12.0625 16.1C11.55 16.1 11.125 16.525 11.125 17.0375C11.125 18.675 12.4125 20.0125 14.0125 20.0125H14.05V20.2375C14.05 20.75 14.475 21.175 14.9875 21.175C15.5 21.175 15.925 20.75 15.925 20.2375V20.0125H16.2125C17.6625 20.0125 18.85 18.7875 18.85 17.3C18.85 15.9875 18.275 15.15 17.0625 14.725ZM13.55 13.5C13.15 13.3625 13.0125 13.2875 13.0125 12.7C13.0125 12.2375 13.35 11.8625 13.775 11.8625H14.0625V13.6875L13.55 13.5ZM16.225 18.15H15.9375V16.325L16.45 16.5C16.85 16.6375 16.9875 16.7125 16.9875 17.3C16.975 17.7625 16.6375 18.15 16.225 18.15Z" fill="#485FE6"/>
</svg>
