<?xml version="1.0" standalone="no"?>
<svg xmlns:xlink="http://www.w3.org/1999/xlink" id="wave" style="transform:rotate(0deg); transition: 0.3s" viewBox="0 0 1440 490" version="1.1" xmlns="http://www.w3.org/2000/svg"><defs><linearGradient id="sw-gradient-0" x1="0" x2="0" y1="1" y2="0"><stop stop-color="rgba(0, 0, 0, 0.1)" offset="0%"/><stop stop-color="rgba(0, 0, 0, 0.1)" offset="100%"/></linearGradient></defs><path style="transform:translate(0, 0px); opacity:1" fill="url(#sw-gradient-0)" d="M0,49L60,40.8C120,33,240,16,360,16.3C480,16,600,33,720,65.3C840,98,960,147,1080,204.2C1200,261,1320,327,1440,318.5C1560,310,1680,229,1800,228.7C1920,229,2040,310,2160,285.8C2280,261,2400,131,2520,114.3C2640,98,2760,196,2880,204.2C3000,212,3120,131,3240,106.2C3360,82,3480,114,3600,106.2C3720,98,3840,49,3960,98C4080,147,4200,294,4320,318.5C4440,343,4560,245,4680,245C4800,245,4920,343,5040,367.5C5160,392,5280,343,5400,285.8C5520,229,5640,163,5760,130.7C5880,98,6000,98,6120,89.8C6240,82,6360,65,6480,122.5C6600,180,6720,310,6840,375.7C6960,441,7080,441,7200,367.5C7320,294,7440,147,7560,89.8C7680,33,7800,65,7920,98C8040,131,8160,163,8280,179.7C8400,196,8520,196,8580,196L8640,196L8640,490L8580,490C8520,490,8400,490,8280,490C8160,490,8040,490,7920,490C7800,490,7680,490,7560,490C7440,490,7320,490,7200,490C7080,490,6960,490,6840,490C6720,490,6600,490,6480,490C6360,490,6240,490,6120,490C6000,490,5880,490,5760,490C5640,490,5520,490,5400,490C5280,490,5160,490,5040,490C4920,490,4800,490,4680,490C4560,490,4440,490,4320,490C4200,490,4080,490,3960,490C3840,490,3720,490,3600,490C3480,490,3360,490,3240,490C3120,490,3000,490,2880,490C2760,490,2640,490,2520,490C2400,490,2280,490,2160,490C2040,490,1920,490,1800,490C1680,490,1560,490,1440,490C1320,490,1200,490,1080,490C960,490,840,490,720,490C600,490,480,490,360,490C240,490,120,490,60,490L0,490Z"/><defs><linearGradient id="sw-gradient-1" x1="0" x2="0" y1="1" y2="0"><stop stop-color="rgba(0, 0, 0, 0.28)" offset="0%"/><stop stop-color="rgba(0, 0, 0, 0.12)" offset="100%"/></linearGradient></defs><path style="transform:translate(0, 50px); opacity:0.9" fill="url(#sw-gradient-1)" d="M0,245L60,253.2C120,261,240,278,360,294C480,310,600,327,720,334.8C840,343,960,343,1080,285.8C1200,229,1320,114,1440,106.2C1560,98,1680,196,1800,196C1920,196,2040,98,2160,98C2280,98,2400,196,2520,196C2640,196,2760,98,2880,122.5C3000,147,3120,294,3240,294C3360,294,3480,147,3600,106.2C3720,65,3840,131,3960,171.5C4080,212,4200,229,4320,245C4440,261,4560,278,4680,253.2C4800,229,4920,163,5040,179.7C5160,196,5280,294,5400,318.5C5520,343,5640,294,5760,228.7C5880,163,6000,82,6120,114.3C6240,147,6360,294,6480,351.2C6600,408,6720,376,6840,359.3C6960,343,7080,343,7200,343C7320,343,7440,343,7560,310.3C7680,278,7800,212,7920,204.2C8040,196,8160,245,8280,236.8C8400,229,8520,163,8580,130.7L8640,98L8640,490L8580,490C8520,490,8400,490,8280,490C8160,490,8040,490,7920,490C7800,490,7680,490,7560,490C7440,490,7320,490,7200,490C7080,490,6960,490,6840,490C6720,490,6600,490,6480,490C6360,490,6240,490,6120,490C6000,490,5880,490,5760,490C5640,490,5520,490,5400,490C5280,490,5160,490,5040,490C4920,490,4800,490,4680,490C4560,490,4440,490,4320,490C4200,490,4080,490,3960,490C3840,490,3720,490,3600,490C3480,490,3360,490,3240,490C3120,490,3000,490,2880,490C2760,490,2640,490,2520,490C2400,490,2280,490,2160,490C2040,490,1920,490,1800,490C1680,490,1560,490,1440,490C1320,490,1200,490,1080,490C960,490,840,490,720,490C600,490,480,490,360,490C240,490,120,490,60,490L0,490Z"/></svg>